<mxfile host="app.diagrams.net" modified="2023-11-07T03:30:07.577Z" agent="Mozilla/5.0 (Windows NT 10.0; Win64; x64) AppleWebKit/537.36 (KHTML, like Gecko) Chrome/119.0.0.0 Safari/537.36" version="22.0.8" etag="6cpF_jExFJlcTRMs8OZu" type="github">
  <diagram name="Page-1" id="qHXAmyH5HkXtZ10Te1L3">
    <mxGraphModel>
      <root>
        <mxCell id="0" />
        <mxCell id="1" parent="0" />
      </root>
    </mxGraphModel>
  </diagram>
</mxfile>
